<?xml version="1.0" standalone="no"?>
<!DOCTYPE svg PUBLIC "-//W3C//DTD SVG 20010904//EN"
 "http://www.w3.org/TR/2001/REC-SVG-20010904/DTD/svg10.dtd">
<svg version="1.0" xmlns="http://www.w3.org/2000/svg"
 width="805.000000pt" height="805.000000pt" viewBox="0 0 805.000000 805.000000"
 preserveAspectRatio="xMidYMid meet">
<metadata>
Created by potrace 1.14, written by Peter Selinger 2001-2017
</metadata>
<g transform="translate(0.000000,805.000000) scale(0.100000,-0.100000)"
fill="#000000" stroke="none">
<path d="M1475 7686 c-99 -45 -200 -217 -250 -428 -13 -57 -26 -114 -28 -128
-7 -45 -35 -109 -65 -147 -16 -21 -50 -30 -292 -77 -162 -31 -227 -48 -238
-64 -36 -47 -63 -104 -76 -162 -16 -72 -15 -106 9 -285 25 -190 25 -774 0
-1160 -23 -354 -23 -1036 0 -1370 6 -95 16 -217 20 -260 15 -162 18 -199 30
-300 8 -68 35 -346 40 -415 3 -36 7 -90 10 -120 5 -62 6 -78 31 -400 3 -36 7
-90 9 -120 2 -30 7 -95 10 -145 3 -49 8 -110 10 -135 2 -25 7 -90 10 -145 4
-55 8 -120 10 -145 2 -25 7 -90 10 -145 4 -55 8 -127 11 -160 9 -130 15 -277
19 -430 1 -88 3 -167 4 -176 2 -31 120 -63 276 -74 44 -3 91 -7 105 -10 14 -2
61 -6 105 -10 44 -3 98 -8 120 -10 38 -4 77 -7 243 -20 37 -3 90 -8 117 -10
28 -2 93 -7 145 -10 164 -10 199 -14 353 -31 51 -6 134 -20 292 -51 163 -31
280 -41 465 -37 102 2 201 5 220 8 19 3 69 7 110 11 190 15 233 19 515 55 88
12 183 23 210 25 72 6 164 15 205 20 19 2 71 7 115 10 44 3 91 8 105 10 14 2
61 7 105 10 44 3 96 8 115 10 60 6 153 16 200 19 25 2 68 7 95 10 28 3 79 8
115 11 113 10 164 15 200 20 19 2 58 7 85 10 105 11 264 32 299 40 12 2 41 7
66 10 25 3 56 7 70 10 14 3 41 7 60 10 19 2 49 6 65 9 17 3 68 10 115 16 47 6
96 13 109 15 14 3 51 7 84 10 32 4 68 8 79 10 11 3 46 7 77 11 31 3 63 8 71 9
8 2 44 6 80 10 36 3 72 8 80 10 8 2 38 6 65 10 47 5 76 9 145 20 17 2 48 7 68
10 21 3 47 7 57 9 11 2 47 7 80 10 33 4 76 9 95 11 19 3 62 7 95 10 133 12
288 71 326 125 21 29 26 79 17 170 -4 36 -10 187 -13 335 -3 149 -7 286 -9
305 -2 19 -7 84 -10 143 -4 59 -9 133 -11 165 -7 90 -15 218 -20 327 -3 55 -7
145 -10 200 -3 55 -7 160 -10 234 -8 173 -19 343 -30 456 -3 28 -7 91 -10 140
-3 50 -8 106 -10 125 -2 19 -7 69 -10 110 -3 41 -7 100 -10 130 -3 30 -7 89
-10 130 -3 41 -7 102 -10 135 -3 33 -7 85 -10 115 -3 30 -7 96 -10 145 -3 50
-8 117 -10 150 -2 33 -7 101 -10 150 -3 50 -8 113 -10 140 -3 28 -7 88 -10
135 -3 47 -8 108 -10 135 -2 28 -7 86 -10 130 -4 44 -8 96 -10 115 -4 36 -12
135 -20 255 -3 39 -7 95 -10 125 -3 30 -7 91 -10 135 -3 44 -8 107 -10 140 -7
90 -15 200 -20 295 -12 228 -15 275 -20 400 -3 74 -8 171 -10 215 -2 44 -7
143 -10 220 -10 237 -10 237 -73 230 -26 -3 -58 -7 -72 -10 -14 -3 -41 -7 -60
-10 -19 -3 -60 -10 -90 -15 -109 -18 -170 -24 -350 -35 -47 -3 -116 -7 -155
-10 -38 -2 -117 -7 -175 -10 -58 -3 -125 -8 -150 -10 -59 -5 -194 -16 -250
-20 -65 -4 -190 -15 -230 -20 -19 -2 -69 -7 -110 -10 -76 -7 -90 -8 -215 -20
-38 -4 -88 -9 -110 -10 -22 -2 -67 -6 -100 -9 -58 -6 -153 -15 -225 -21 -19
-2 -73 -6 -120 -10 -47 -4 -101 -8 -120 -10 -19 -2 -73 -6 -120 -10 -47 -3
-92 -8 -100 -10 -8 -2 -64 -7 -125 -11 -60 -3 -117 -8 -126 -9 -9 -2 -61 -6
-115 -10 -55 -4 -115 -8 -134 -10 -19 -2 -99 -6 -178 -10 -78 -4 -168 -8 -200
-10 -31 -2 -106 -6 -167 -9 -60 -4 -128 -9 -150 -11 -47 -5 -136 -13 -220 -20
-78 -6 -155 -13 -230 -21 -73 -7 -120 -11 -250 -19 -55 -4 -116 -8 -135 -10
-110 -10 -272 -14 -315 -8 -44 7 -50 11 -57 38 -4 17 -17 73 -29 125 -43 183
-87 268 -188 361 -121 112 -220 156 -286 125z m188 -203 c94 -72 165 -185 182
-288 17 -108 3 -175 -38 -175 -7 0 -17 -3 -21 -7 -9 -9 -23 -11 -146 -18 -319
-17 -289 -23 -307 52 -14 56 -9 104 21 200 14 43 28 94 31 113 9 52 56 121
110 162 48 36 49 36 79 21 17 -9 57 -36 89 -60z"/>
</g>
</svg>
